<?xml version="1.0" encoding="UTF-8" standalone="no"?><svg xmlns="http://www.w3.org/2000/svg" xmlns:xlink="http://www.w3.org/1999/xlink" width="21px" height="20px" viewBox="0 0 21 20" version="1.1"><title>save_item [#1410]</title><g id="Page-1" stroke="none" stroke-width="1" fill="none" fill-rule="evenodd"><g id="Dribbble-Light-Preview" transform="translate(-59.000000, -680.000000)" fill="#000"><g id="icons" transform="translate(56.000000, 160.000000)"><path d="M10.219 524c0-.552.47-1 1.05-1 .58 0 1.05.448 1.05 1s-.47 1-1.05 1c-.58 0-1.05-.448-1.05-1zm9.581 11c0 .552-.47 1-1.05 1H8.25c-.58 0-1.05-.448-1.05-1s.47-1 1.05-1h10.5c.58 0 1.05.448 1.05 1zm0-4c0 .552-.47 1-1.05 1H8.25c-.58 0-1.05-.448-1.05-1s.47-1 1.05-1h10.5c.58 0 1.05.448 1.05 1zm2.1 6c0 .552-.47 1-1.05 1H6.15c-.58 0-1.05-.448-1.05-1v-9.956c0-.133.056-.26.153-.353l1.947-1.854V526c0 1.105.94 2 2.1 2h8.4c1.16 0 2.1-.895 2.1-2v-4h1.05c.58 0 1.05.448 1.05 1v14zM9.3 522.837l.726-.691a.54.54 0 0 1 .37-.146H17.7v3c0 .552-.47 1-1.05 1h-6.3c-.58 0-1.05-.448-1.05-1v-2.163zM21.9 520H9.75c-.278 0-.544.105-.74.292l-5.698 5.415a.976.976 0 0 0-.308.708L3 538c0 1.104.94 2 2.099 2H21.9c1.16 0 2.1-.895 2.1-2v-16c0-1.105-.94-2-2.1-2z" id="save_item-[#1410]"/></g></g></g><metadata><rdf:RDF xmlns:rdf="http://www.w3.org/1999/02/22-rdf-syntax-ns#" xmlns:rdfs="http://www.w3.org/2000/01/rdf-schema#" xmlns:dc="http://purl.org/dc/elements/1.1/"><rdf:Description about="https://iconscout.com/legal#licenses" dc:title="save,item" dc:description="save,item" dc:publisher="Iconscout" dc:date="2017-09-15" dc:format="image/svg+xml" dc:language="en"><dc:creator><rdf:Bag><rdf:li>Alexandru Stoica</rdf:li></rdf:Bag></dc:creator></rdf:Description></rdf:RDF></metadata></svg>